<?xml version="1.0" encoding="UTF-8" standalone="no"?><svg xmlns="http://www.w3.org/2000/svg" xmlns:xlink="http://www.w3.org/1999/xlink" contentScriptType="application/ecmascript" contentStyleType="text/css" height="596px" preserveAspectRatio="none" style="width:798px;height:596px;" version="1.1" viewBox="0 0 798 596" width="798px" zoomAndPan="magnify"><defs><filter height="300%" id="f1aq4vg8ajhgc1" width="300%" x="-1" y="-1"><feGaussianBlur result="blurOut" stdDeviation="2.0"/><feColorMatrix in="blurOut" result="blurOut2" type="matrix" values="0 0 0 0 0 0 0 0 0 0 0 0 0 0 0 0 0 0 .4 0"/><feOffset dx="4.0" dy="4.0" in="blurOut2" result="blurOut3"/><feBlend in="SourceGraphic" in2="blurOut3" mode="normal"/></filter></defs><g><rect fill="#DDDDDD" height="581.7188" style="stroke: #A80036; stroke-width: 1.0;" width="501" x="29" y="4"/><text fill="#000000" font-family="sans-serif" font-size="13" font-weight="bold" lengthAdjust="spacingAndGlyphs" textLength="98" x="230.5" y="16.0669">Local entities</text><rect fill="#87CEEB" height="581.7188" style="stroke: #A80036; stroke-width: 1.0;" width="249.5" x="532" y="4"/><text fill="#000000" font-family="sans-serif" font-size="13" font-weight="bold" lengthAdjust="spacingAndGlyphs" textLength="109" x="599.75" y="16.0669">Cloud instance</text><rect fill="#FFFFFF" filter="url(#f1aq4vg8ajhgc1)" height="90.5313" style="stroke: #000000; stroke-width: 2.0;" width="764.5" x="23" y="123.4297"/><rect fill="#FFFFFF" filter="url(#f1aq4vg8ajhgc1)" height="254.4609" style="stroke: #000000; stroke-width: 2.0;" width="774.5" x="13" y="227.9609"/><rect fill="#FFFFFF" filter="url(#f1aq4vg8ajhgc1)" height="134.7969" style="stroke: #000000; stroke-width: 2.0;" width="513" x="23" y="340.625"/><line style="stroke: #A80036; stroke-width: 1.0; stroke-dasharray: 5.0,5.0;" x1="56" x2="56" y1="106.4297" y2="499.4219"/><line style="stroke: #A80036; stroke-width: 1.0; stroke-dasharray: 5.0,5.0;" x1="138" x2="138" y1="106.4297" y2="499.4219"/><line style="stroke: #A80036; stroke-width: 1.0; stroke-dasharray: 5.0,5.0;" x1="311" x2="311" y1="106.4297" y2="499.4219"/><line style="stroke: #A80036; stroke-width: 1.0; stroke-dasharray: 5.0,5.0;" x1="478" x2="478" y1="106.4297" y2="499.4219"/><line style="stroke: #A80036; stroke-width: 1.0; stroke-dasharray: 5.0,5.0;" x1="576" x2="576" y1="106.4297" y2="499.4219"/><line style="stroke: #A80036; stroke-width: 1.0; stroke-dasharray: 5.0,5.0;" x1="741.5" x2="741.5" y1="106.4297" y2="499.4219"/><text fill="#000000" font-family="sans-serif" font-size="14" lengthAdjust="spacingAndGlyphs" textLength="40" x="33" y="103.1279">Editor</text><ellipse cx="56" cy="33.1328" fill="#FEFECE" filter="url(#f1aq4vg8ajhgc1)" rx="8" ry="8" style="stroke: #A80036; stroke-width: 2.0;"/><path d="M56,41.1328 L56,68.1328 M43,49.1328 L69,49.1328 M56,68.1328 L43,83.1328 M56,68.1328 L69,83.1328 " fill="none" filter="url(#f1aq4vg8ajhgc1)" style="stroke: #A80036; stroke-width: 2.0;"/><text fill="#000000" font-family="sans-serif" font-size="14" lengthAdjust="spacingAndGlyphs" textLength="40" x="33" y="511.417">Editor</text><ellipse cx="56" cy="524.7188" fill="#FEFECE" filter="url(#f1aq4vg8ajhgc1)" rx="8" ry="8" style="stroke: #A80036; stroke-width: 2.0;"/><path d="M56,532.7188 L56,559.7188 M43,540.7188 L69,540.7188 M56,559.7188 L43,574.7188 M56,559.7188 L69,574.7188 " fill="none" filter="url(#f1aq4vg8ajhgc1)" style="stroke: #A80036; stroke-width: 2.0;"/><rect fill="#FEFECE" filter="url(#f1aq4vg8ajhgc1)" height="30.2969" style="stroke: #A80036; stroke-width: 1.5;" width="90" x="93" y="67.1328"/><rect fill="#FEFECE" filter="url(#f1aq4vg8ajhgc1)" height="30.2969" style="stroke: #A80036; stroke-width: 1.5;" width="90" x="89" y="71.1328"/><text fill="#000000" font-family="sans-serif" font-size="14" lengthAdjust="spacingAndGlyphs" textLength="76" x="96" y="91.1279">CSV Export</text><rect fill="#FEFECE" filter="url(#f1aq4vg8ajhgc1)" height="30.2969" style="stroke: #A80036; stroke-width: 1.5;" width="90" x="93" y="498.4219"/><rect fill="#FEFECE" filter="url(#f1aq4vg8ajhgc1)" height="30.2969" style="stroke: #A80036; stroke-width: 1.5;" width="90" x="89" y="502.4219"/><text fill="#000000" font-family="sans-serif" font-size="14" lengthAdjust="spacingAndGlyphs" textLength="76" x="96" y="522.417">CSV Export</text><text fill="#000000" font-family="sans-serif" font-size="14" lengthAdjust="spacingAndGlyphs" textLength="68" x="274" y="86.8311">Dictionary</text><text fill="#000000" font-family="sans-serif" font-size="14" lengthAdjust="spacingAndGlyphs" textLength="70" x="273" y="103.1279">Generator</text><ellipse cx="311" cy="57.8359" fill="#FEFECE" filter="url(#f1aq4vg8ajhgc1)" rx="12" ry="12" style="stroke: #A80036; stroke-width: 2.0;"/><polygon fill="#A80036" points="307,45.8359,313,40.8359,311,45.8359,313,50.8359,307,45.8359" style="stroke: #A80036; stroke-width: 1.0;"/><text fill="#000000" font-family="sans-serif" font-size="14" lengthAdjust="spacingAndGlyphs" textLength="68" x="274" y="511.417">Dictionary</text><text fill="#000000" font-family="sans-serif" font-size="14" lengthAdjust="spacingAndGlyphs" textLength="70" x="273" y="527.7139">Generator</text><ellipse cx="311" cy="547.0156" fill="#FEFECE" filter="url(#f1aq4vg8ajhgc1)" rx="12" ry="12" style="stroke: #A80036; stroke-width: 2.0;"/><polygon fill="#A80036" points="307,535.0156,313,530.0156,311,535.0156,313,540.0156,307,535.0156" style="stroke: #A80036; stroke-width: 1.0;"/><rect fill="#FEFECE" filter="url(#f1aq4vg8ajhgc1)" height="46.5938" style="stroke: #A80036; stroke-width: 1.5;" width="88" x="434" y="50.8359"/><rect fill="#FEFECE" filter="url(#f1aq4vg8ajhgc1)" height="46.5938" style="stroke: #A80036; stroke-width: 1.5;" width="88" x="430" y="54.8359"/><text fill="#000000" font-family="sans-serif" font-size="14" lengthAdjust="spacingAndGlyphs" textLength="74" x="437" y="74.8311">Generated</text><text fill="#000000" font-family="sans-serif" font-size="14" lengthAdjust="spacingAndGlyphs" textLength="68" x="440" y="91.1279">Dictionary</text><rect fill="#FEFECE" filter="url(#f1aq4vg8ajhgc1)" height="46.5938" style="stroke: #A80036; stroke-width: 1.5;" width="88" x="434" y="498.4219"/><rect fill="#FEFECE" filter="url(#f1aq4vg8ajhgc1)" height="46.5938" style="stroke: #A80036; stroke-width: 1.5;" width="88" x="430" y="502.4219"/><text fill="#000000" font-family="sans-serif" font-size="14" lengthAdjust="spacingAndGlyphs" textLength="74" x="437" y="522.417">Generated</text><text fill="#000000" font-family="sans-serif" font-size="14" lengthAdjust="spacingAndGlyphs" textLength="68" x="440" y="538.7139">Dictionary</text><text fill="#000000" font-family="sans-serif" font-size="14" lengthAdjust="spacingAndGlyphs" textLength="31" x="558" y="86.8311">Web</text><text fill="#000000" font-family="sans-serif" font-size="14" lengthAdjust="spacingAndGlyphs" textLength="75" x="536" y="103.1279">Application</text><ellipse cx="576.5" cy="57.8359" fill="#FEFECE" filter="url(#f1aq4vg8ajhgc1)" rx="12" ry="12" style="stroke: #A80036; stroke-width: 2.0;"/><polygon fill="#A80036" points="572.5,45.8359,578.5,40.8359,576.5,45.8359,578.5,50.8359,572.5,45.8359" style="stroke: #A80036; stroke-width: 1.0;"/><text fill="#000000" font-family="sans-serif" font-size="14" lengthAdjust="spacingAndGlyphs" textLength="31" x="558" y="511.417">Web</text><text fill="#000000" font-family="sans-serif" font-size="14" lengthAdjust="spacingAndGlyphs" textLength="75" x="536" y="527.7139">Application</text><ellipse cx="576.5" cy="547.0156" fill="#FEFECE" filter="url(#f1aq4vg8ajhgc1)" rx="12" ry="12" style="stroke: #A80036; stroke-width: 2.0;"/><polygon fill="#A80036" points="572.5,535.0156,578.5,530.0156,576.5,535.0156,578.5,540.0156,572.5,535.0156" style="stroke: #A80036; stroke-width: 1.0;"/><text fill="#000000" font-family="sans-serif" font-size="14" lengthAdjust="spacingAndGlyphs" textLength="66" x="705.5" y="103.1279">Database</text><path d="M723.5,54.1328 C723.5,44.1328 741.5,44.1328 741.5,44.1328 C741.5,44.1328 759.5,44.1328 759.5,54.1328 L759.5,80.1328 C759.5,90.1328 741.5,90.1328 741.5,90.1328 C741.5,90.1328 723.5,90.1328 723.5,80.1328 L723.5,54.1328 " fill="#FEFECE" filter="url(#f1aq4vg8ajhgc1)" style="stroke: #000000; stroke-width: 1.5;"/><path d="M723.5,54.1328 C723.5,64.1328 741.5,64.1328 741.5,64.1328 C741.5,64.1328 759.5,64.1328 759.5,54.1328 " fill="none" style="stroke: #000000; stroke-width: 1.5;"/><text fill="#000000" font-family="sans-serif" font-size="14" lengthAdjust="spacingAndGlyphs" textLength="66" x="705.5" y="511.417">Database</text><path d="M723.5,524.7188 C723.5,514.7188 741.5,514.7188 741.5,514.7188 C741.5,514.7188 759.5,514.7188 759.5,524.7188 L759.5,550.7188 C759.5,560.7188 741.5,560.7188 741.5,560.7188 C741.5,560.7188 723.5,560.7188 723.5,550.7188 L723.5,524.7188 " fill="#FEFECE" filter="url(#f1aq4vg8ajhgc1)" style="stroke: #000000; stroke-width: 1.5;"/><path d="M723.5,524.7188 C723.5,534.7188 741.5,534.7188 741.5,534.7188 C741.5,534.7188 759.5,534.7188 759.5,524.7188 " fill="none" style="stroke: #000000; stroke-width: 1.5;"/><path d="M23,123.4297 L198,123.4297 L198,130.4297 L188,140.4297 L23,140.4297 L23,123.4297 " fill="#EEEEEE" style="stroke: #000000; stroke-width: 1.0;"/><rect fill="none" height="90.5313" style="stroke: #000000; stroke-width: 2.0;" width="764.5" x="23" y="123.4297"/><text fill="#000000" font-family="sans-serif" font-size="13" font-weight="bold" lengthAdjust="spacingAndGlyphs" textLength="130" x="38" y="136.4966">dictionary editing</text><polygon fill="#A80036" points="564.5,172.8281,574.5,176.8281,564.5,180.8281,568.5,176.8281" style="stroke: #A80036; stroke-width: 1.0;"/><line style="stroke: #A80036; stroke-width: 1.0;" x1="56" x2="570.5" y1="176.8281" y2="176.8281"/><text fill="#000000" font-family="sans-serif" font-size="13" lengthAdjust="spacingAndGlyphs" textLength="122" x="63" y="156.6294">edits the dictionary</text><text fill="#000000" font-family="sans-serif" font-size="13" lengthAdjust="spacingAndGlyphs" textLength="44" x="63" y="171.7622">entries</text><polygon fill="#A80036" points="729.5,201.9609,739.5,205.9609,729.5,209.9609,733.5,205.9609" style="stroke: #A80036; stroke-width: 1.0;"/><line style="stroke: #A80036; stroke-width: 1.0;" x1="576.5" x2="735.5" y1="205.9609" y2="205.9609"/><text fill="#000000" font-family="sans-serif" font-size="13" lengthAdjust="spacingAndGlyphs" textLength="141" x="583.5" y="200.895">updates the database</text><path d="M13,227.9609 L216,227.9609 L216,234.9609 L206,244.9609 L13,244.9609 L13,227.9609 " fill="#EEEEEE" style="stroke: #000000; stroke-width: 1.0;"/><rect fill="none" height="254.4609" style="stroke: #000000; stroke-width: 2.0;" width="774.5" x="13" y="227.9609"/><text fill="#000000" font-family="sans-serif" font-size="13" font-weight="bold" lengthAdjust="spacingAndGlyphs" textLength="158" x="28" y="241.0278">dictionary generation</text><polygon fill="#A80036" points="564.5,292.4922,574.5,296.4922,564.5,300.4922,568.5,296.4922" style="stroke: #A80036; stroke-width: 1.0;"/><line style="stroke: #A80036; stroke-width: 1.0;" x1="56" x2="570.5" y1="296.4922" y2="296.4922"/><text fill="#000000" font-family="sans-serif" font-size="13" lengthAdjust="spacingAndGlyphs" textLength="109" x="63" y="261.1606">choose subset of</text><text fill="#000000" font-family="sans-serif" font-size="13" lengthAdjust="spacingAndGlyphs" textLength="130" x="63" y="276.2935">target languages for</text><text fill="#000000" font-family="sans-serif" font-size="13" lengthAdjust="spacingAndGlyphs" textLength="41" x="63" y="291.4263">export</text><polygon fill="#A80036" points="587.5,321.625,577.5,325.625,587.5,329.625,583.5,325.625" style="stroke: #A80036; stroke-width: 1.0;"/><line style="stroke: #A80036; stroke-width: 1.0;" x1="581.5" x2="740.5" y1="325.625" y2="325.625"/><text fill="#000000" font-family="sans-serif" font-size="13" lengthAdjust="spacingAndGlyphs" textLength="78" x="593.5" y="320.5591">extract data</text><path d="M23,340.625 L354,340.625 L354,347.625 L344,357.625 L23,357.625 L23,340.625 " fill="#EEEEEE" style="stroke: #000000; stroke-width: 1.0;"/><rect fill="none" height="134.7969" style="stroke: #000000; stroke-width: 2.0;" width="513" x="23" y="340.625"/><text fill="#000000" font-family="sans-serif" font-size="13" font-weight="bold" lengthAdjust="spacingAndGlyphs" textLength="286" x="38" y="353.6919">Existing Dictionary Generation Process</text><polygon fill="#A80036" points="299,374.8906,309,378.8906,299,382.8906,303,378.8906" style="stroke: #A80036; stroke-width: 1.0;"/><line style="stroke: #A80036; stroke-width: 1.0;" x1="56" x2="305" y1="378.8906" y2="378.8906"/><text fill="#000000" font-family="sans-serif" font-size="13" lengthAdjust="spacingAndGlyphs" textLength="41" x="63" y="373.8247">invoke</text><polygon fill="#A80036" points="149,434.2891,139,438.2891,149,442.2891,145,438.2891" style="stroke: #A80036; stroke-width: 1.0;"/><line style="stroke: #A80036; stroke-width: 1.0;" x1="143" x2="310" y1="438.2891" y2="438.2891"/><text fill="#000000" font-family="sans-serif" font-size="13" lengthAdjust="spacingAndGlyphs" textLength="149" x="155" y="402.9575">import and process the</text><text fill="#000000" font-family="sans-serif" font-size="13" lengthAdjust="spacingAndGlyphs" textLength="131" x="155" y="418.0903">CSV to generate the</text><text fill="#000000" font-family="sans-serif" font-size="13" lengthAdjust="spacingAndGlyphs" textLength="96" x="155" y="433.2231">inflections, etc.</text><polygon fill="#A80036" points="466,463.4219,476,467.4219,466,471.4219,470,467.4219" style="stroke: #A80036; stroke-width: 1.0;"/><line style="stroke: #A80036; stroke-width: 1.0;" x1="311" x2="472" y1="467.4219" y2="467.4219"/><text fill="#000000" font-family="sans-serif" font-size="13" lengthAdjust="spacingAndGlyphs" textLength="143" x="318" y="462.356">produce the dictionary</text><!--MD5=[d05cb351d768a8ef7f4d7a4a8705c656]
@startuml
skinparam maxMessageSize 150
skinparam wrapWidth 150

box Local entities
actor "Editor" as editor
collections "CSV Export" as csv
control "Dictionary\nGenerator" as dict_gen
collections "Generated\nDictionary" as gen_dict
end box
box Cloud instance #SkyBlue
control "Web\nApplication" as webapp
database "Database" as web_db 
end box


group dictionary editing
editor -> webapp: edits the dictionary entries
webapp -> web_db: updates the database
end group

group dictionary generation
editor -> webapp: choose subset of target languages for export
webapp <- web_db: extract data
group Existing Dictionary Generation Process
editor -> dict_gen: invoke
csv <- dict_gen: import and process the CSV to generate the inflections, etc.
dict_gen -> gen_dict: produce the dictionary
end


end group

@enduml

PlantUML version 1.2020.02(Sun Mar 01 11:22:07 CET 2020)
(GPL source distribution)
Java Runtime: OpenJDK Runtime Environment
JVM: OpenJDK 64-Bit Server VM
Java Version: 17.0.4+8-Debian-1deb11u1
Operating System: Linux
Default Encoding: UTF-8
Language: en
Country: GB
--></g></svg>