<?xml version="1.0" encoding="UTF-8" standalone="no"?><svg xmlns="http://www.w3.org/2000/svg" xmlns:xlink="http://www.w3.org/1999/xlink" contentScriptType="application/ecmascript" contentStyleType="text/css" height="417px" preserveAspectRatio="none" style="width:365px;height:417px;" version="1.1" viewBox="0 0 365 417" width="365px" zoomAndPan="magnify"><defs><filter height="300%" id="f3op7lr90p4qw" width="300%" x="-1" y="-1"><feGaussianBlur result="blurOut" stdDeviation="2.0"/><feColorMatrix in="blurOut" result="blurOut2" type="matrix" values="0 0 0 0 0 0 0 0 0 0 0 0 0 0 0 0 0 0 .4 0"/><feOffset dx="4.0" dy="4.0" in="blurOut2" result="blurOut3"/><feBlend in="SourceGraphic" in2="blurOut3" mode="normal"/></filter></defs><g><rect fill="#DDDDDD" height="402.9219" style="stroke: #A80036; stroke-width: 1.0;" width="329.5" x="19" y="4"/><text fill="#000000" font-family="sans-serif" font-size="13" font-weight="bold" lengthAdjust="spacingAndGlyphs" textLength="98" x="134.75" y="16.0669">Local entities</text><rect fill="#FFFFFF" filter="url(#f3op7lr90p4qw)" height="180.1953" style="stroke: #000000; stroke-width: 2.0;" width="341.5" x="13" y="123.4297"/><line style="stroke: #A80036; stroke-width: 1.0; stroke-dasharray: 5.0,5.0;" x1="46" x2="46" y1="106.4297" y2="320.625"/><line style="stroke: #A80036; stroke-width: 1.0; stroke-dasharray: 5.0,5.0;" x1="128" x2="128" y1="106.4297" y2="320.625"/><line style="stroke: #A80036; stroke-width: 1.0; stroke-dasharray: 5.0,5.0;" x1="301.5" x2="301.5" y1="106.4297" y2="320.625"/><text fill="#000000" font-family="sans-serif" font-size="14" lengthAdjust="spacingAndGlyphs" textLength="40" x="23" y="103.1279">Editor</text><ellipse cx="46" cy="33.1328" fill="#FEFECE" filter="url(#f3op7lr90p4qw)" rx="8" ry="8" style="stroke: #A80036; stroke-width: 2.0;"/><path d="M46,41.1328 L46,68.1328 M33,49.1328 L59,49.1328 M46,68.1328 L33,83.1328 M46,68.1328 L59,83.1328 " fill="none" filter="url(#f3op7lr90p4qw)" style="stroke: #A80036; stroke-width: 2.0;"/><text fill="#000000" font-family="sans-serif" font-size="14" lengthAdjust="spacingAndGlyphs" textLength="40" x="23" y="332.6201">Editor</text><ellipse cx="46" cy="345.9219" fill="#FEFECE" filter="url(#f3op7lr90p4qw)" rx="8" ry="8" style="stroke: #A80036; stroke-width: 2.0;"/><path d="M46,353.9219 L46,380.9219 M33,361.9219 L59,361.9219 M46,380.9219 L33,395.9219 M46,380.9219 L59,395.9219 " fill="none" filter="url(#f3op7lr90p4qw)" style="stroke: #A80036; stroke-width: 2.0;"/><rect fill="#FEFECE" filter="url(#f3op7lr90p4qw)" height="30.2969" style="stroke: #A80036; stroke-width: 1.5;" width="90" x="83" y="67.1328"/><rect fill="#FEFECE" filter="url(#f3op7lr90p4qw)" height="30.2969" style="stroke: #A80036; stroke-width: 1.5;" width="90" x="79" y="71.1328"/><text fill="#000000" font-family="sans-serif" font-size="14" lengthAdjust="spacingAndGlyphs" textLength="76" x="86" y="91.1279">CSV Export</text><rect fill="#FEFECE" filter="url(#f3op7lr90p4qw)" height="30.2969" style="stroke: #A80036; stroke-width: 1.5;" width="90" x="83" y="319.625"/><rect fill="#FEFECE" filter="url(#f3op7lr90p4qw)" height="30.2969" style="stroke: #A80036; stroke-width: 1.5;" width="90" x="79" y="323.625"/><text fill="#000000" font-family="sans-serif" font-size="14" lengthAdjust="spacingAndGlyphs" textLength="76" x="86" y="343.6201">CSV Export</text><text fill="#000000" font-family="sans-serif" font-size="14" lengthAdjust="spacingAndGlyphs" textLength="79" x="259.5" y="103.1279">Merge-Tool</text><ellipse cx="302" cy="74.1328" fill="#FEFECE" filter="url(#f3op7lr90p4qw)" rx="12" ry="12" style="stroke: #A80036; stroke-width: 2.0;"/><polygon fill="#A80036" points="298,62.1328,304,57.1328,302,62.1328,304,67.1328,298,62.1328" style="stroke: #A80036; stroke-width: 1.0;"/><text fill="#000000" font-family="sans-serif" font-size="14" lengthAdjust="spacingAndGlyphs" textLength="79" x="259.5" y="332.6201">Merge-Tool</text><ellipse cx="302" cy="351.9219" fill="#FEFECE" filter="url(#f3op7lr90p4qw)" rx="12" ry="12" style="stroke: #A80036; stroke-width: 2.0;"/><polygon fill="#A80036" points="298,339.9219,304,334.9219,302,339.9219,304,344.9219,298,339.9219" style="stroke: #A80036; stroke-width: 1.0;"/><path d="M13,123.4297 L238,123.4297 L238,130.4297 L228,140.4297 L13,140.4297 L13,123.4297 " fill="#EEEEEE" style="stroke: #000000; stroke-width: 1.0;"/><rect fill="none" height="180.1953" style="stroke: #000000; stroke-width: 2.0;" width="341.5" x="13" y="123.4297"/><text fill="#000000" font-family="sans-serif" font-size="13" font-weight="bold" lengthAdjust="spacingAndGlyphs" textLength="180" x="28" y="136.4966">one-time data migration</text><polygon fill="#A80036" points="290,157.6953,300,161.6953,290,165.6953,294,161.6953" style="stroke: #A80036; stroke-width: 1.0;"/><line style="stroke: #A80036; stroke-width: 1.0;" x1="46" x2="296" y1="161.6953" y2="161.6953"/><text fill="#000000" font-family="sans-serif" font-size="13" lengthAdjust="spacingAndGlyphs" textLength="41" x="53" y="156.6294">invoke</text><polygon fill="#A80036" points="290,201.9609,300,205.9609,290,209.9609,294,205.9609" style="stroke: #A80036; stroke-width: 1.0;"/><line style="stroke: #A80036; stroke-width: 1.0;" x1="128" x2="296" y1="205.9609" y2="205.9609"/><text fill="#000000" font-family="sans-serif" font-size="13" lengthAdjust="spacingAndGlyphs" textLength="123" x="135" y="185.7622">input DPD and DPS</text><text fill="#000000" font-family="sans-serif" font-size="13" lengthAdjust="spacingAndGlyphs" textLength="34" x="135" y="200.895">CSVs</text><polygon fill="#A80036" points="139,291.625,129,295.625,139,299.625,135,295.625" style="stroke: #A80036; stroke-width: 1.0;"/><line style="stroke: #A80036; stroke-width: 1.0;" x1="133" x2="301" y1="295.625" y2="295.625"/><text fill="#000000" font-family="sans-serif" font-size="13" lengthAdjust="spacingAndGlyphs" textLength="127" x="145" y="230.0278">output merged CSV</text><text fill="#000000" font-family="sans-serif" font-size="13" lengthAdjust="spacingAndGlyphs" textLength="117" x="145" y="245.1606">data together with</text><text fill="#000000" font-family="sans-serif" font-size="13" lengthAdjust="spacingAndGlyphs" textLength="128" x="145" y="260.2935">report about entries</text><text fill="#000000" font-family="sans-serif" font-size="13" lengthAdjust="spacingAndGlyphs" textLength="150" x="145" y="275.4263">where manual merge is</text><text fill="#000000" font-family="sans-serif" font-size="13" lengthAdjust="spacingAndGlyphs" textLength="65" x="145" y="290.5591">necessary</text><!--MD5=[7034d68abec0dc60ad350ac2c3b3e8c8]
@startuml
skinparam maxMessageSize 150
skinparam wrapWidth 150

box Local entities
actor "Editor" as editor
collections "CSV Export" as csv
control "Merge-Tool" as merge_tool
end box

group one-time data migration
editor -> merge_tool: invoke
csv -> merge_tool: input DPD and DPS CSVs
merge_tool -> csv: output merged CSV data together with report about entries where manual merge is necessary
end 
@enduml

PlantUML version 1.2020.02(Sun Mar 01 11:22:07 CET 2020)
(GPL source distribution)
Java Runtime: OpenJDK Runtime Environment
JVM: OpenJDK 64-Bit Server VM
Java Version: 17.0.4+8-Debian-1deb11u1
Operating System: Linux
Default Encoding: UTF-8
Language: en
Country: GB
--></g></svg>