<?xml version="1.0" encoding="UTF-8" standalone="no"?><svg xmlns="http://www.w3.org/2000/svg" xmlns:xlink="http://www.w3.org/1999/xlink" contentScriptType="application/ecmascript" contentStyleType="text/css" height="625px" preserveAspectRatio="none" style="width:791px;height:625px;" version="1.1" viewBox="0 0 791 625" width="791px" zoomAndPan="magnify"><defs><filter height="300%" id="fjqglqqpmeofi" width="300%" x="-1" y="-1"><feGaussianBlur result="blurOut" stdDeviation="2.0"/><feColorMatrix in="blurOut" result="blurOut2" type="matrix" values="0 0 0 0 0 0 0 0 0 0 0 0 0 0 0 0 0 0 .4 0"/><feOffset dx="4.0" dy="4.0" in="blurOut2" result="blurOut3"/><feBlend in="SourceGraphic" in2="blurOut3" mode="normal"/></filter></defs><g><rect fill="#DDDDDD" height="610.8516" style="stroke: #A80036; stroke-width: 1.0;" width="501" x="29" y="4"/><text fill="#000000" font-family="sans-serif" font-size="13" font-weight="bold" lengthAdjust="spacingAndGlyphs" textLength="98" x="230.5" y="16.0669">Local entities</text><rect fill="#87CEEB" height="610.8516" style="stroke: #A80036; stroke-width: 1.0;" width="242.5" x="532" y="4"/><text fill="#000000" font-family="sans-serif" font-size="13" font-weight="bold" lengthAdjust="spacingAndGlyphs" textLength="109" x="596.25" y="16.0669">Cloud instance</text><rect fill="#FFFFFF" filter="url(#fjqglqqpmeofi)" height="90.5313" style="stroke: #000000; stroke-width: 2.0;" width="757.5" x="23" y="123.4297"/><rect fill="#FFFFFF" filter="url(#fjqglqqpmeofi)" height="283.5938" style="stroke: #000000; stroke-width: 2.0;" width="767.5" x="13" y="227.9609"/><rect fill="#FFFFFF" filter="url(#fjqglqqpmeofi)" height="134.7969" style="stroke: #000000; stroke-width: 2.0;" width="513" x="23" y="369.7578"/><line style="stroke: #A80036; stroke-width: 1.0; stroke-dasharray: 5.0,5.0;" x1="56" x2="56" y1="106.4297" y2="528.5547"/><line style="stroke: #A80036; stroke-width: 1.0; stroke-dasharray: 5.0,5.0;" x1="138" x2="138" y1="106.4297" y2="528.5547"/><line style="stroke: #A80036; stroke-width: 1.0; stroke-dasharray: 5.0,5.0;" x1="311" x2="311" y1="106.4297" y2="528.5547"/><line style="stroke: #A80036; stroke-width: 1.0; stroke-dasharray: 5.0,5.0;" x1="478" x2="478" y1="106.4297" y2="528.5547"/><line style="stroke: #A80036; stroke-width: 1.0; stroke-dasharray: 5.0,5.0;" x1="576" x2="576" y1="106.4297" y2="528.5547"/><line style="stroke: #A80036; stroke-width: 1.0; stroke-dasharray: 5.0,5.0;" x1="734.5" x2="734.5" y1="106.4297" y2="528.5547"/><text fill="#000000" font-family="sans-serif" font-size="14" lengthAdjust="spacingAndGlyphs" textLength="40" x="33" y="103.1279">Editor</text><ellipse cx="56" cy="33.1328" fill="#FEFECE" filter="url(#fjqglqqpmeofi)" rx="8" ry="8" style="stroke: #A80036; stroke-width: 2.0;"/><path d="M56,41.1328 L56,68.1328 M43,49.1328 L69,49.1328 M56,68.1328 L43,83.1328 M56,68.1328 L69,83.1328 " fill="none" filter="url(#fjqglqqpmeofi)" style="stroke: #A80036; stroke-width: 2.0;"/><text fill="#000000" font-family="sans-serif" font-size="14" lengthAdjust="spacingAndGlyphs" textLength="40" x="33" y="540.5498">Editor</text><ellipse cx="56" cy="553.8516" fill="#FEFECE" filter="url(#fjqglqqpmeofi)" rx="8" ry="8" style="stroke: #A80036; stroke-width: 2.0;"/><path d="M56,561.8516 L56,588.8516 M43,569.8516 L69,569.8516 M56,588.8516 L43,603.8516 M56,588.8516 L69,603.8516 " fill="none" filter="url(#fjqglqqpmeofi)" style="stroke: #A80036; stroke-width: 2.0;"/><rect fill="#FEFECE" filter="url(#fjqglqqpmeofi)" height="30.2969" style="stroke: #A80036; stroke-width: 1.5;" width="90" x="93" y="67.1328"/><rect fill="#FEFECE" filter="url(#fjqglqqpmeofi)" height="30.2969" style="stroke: #A80036; stroke-width: 1.5;" width="90" x="89" y="71.1328"/><text fill="#000000" font-family="sans-serif" font-size="14" lengthAdjust="spacingAndGlyphs" textLength="76" x="96" y="91.1279">CSV Export</text><rect fill="#FEFECE" filter="url(#fjqglqqpmeofi)" height="30.2969" style="stroke: #A80036; stroke-width: 1.5;" width="90" x="93" y="527.5547"/><rect fill="#FEFECE" filter="url(#fjqglqqpmeofi)" height="30.2969" style="stroke: #A80036; stroke-width: 1.5;" width="90" x="89" y="531.5547"/><text fill="#000000" font-family="sans-serif" font-size="14" lengthAdjust="spacingAndGlyphs" textLength="76" x="96" y="551.5498">CSV Export</text><text fill="#000000" font-family="sans-serif" font-size="14" lengthAdjust="spacingAndGlyphs" textLength="68" x="274" y="86.8311">Dictionary</text><text fill="#000000" font-family="sans-serif" font-size="14" lengthAdjust="spacingAndGlyphs" textLength="70" x="273" y="103.1279">Generator</text><ellipse cx="311" cy="57.8359" fill="#FEFECE" filter="url(#fjqglqqpmeofi)" rx="12" ry="12" style="stroke: #A80036; stroke-width: 2.0;"/><polygon fill="#A80036" points="307,45.8359,313,40.8359,311,45.8359,313,50.8359,307,45.8359" style="stroke: #A80036; stroke-width: 1.0;"/><text fill="#000000" font-family="sans-serif" font-size="14" lengthAdjust="spacingAndGlyphs" textLength="68" x="274" y="540.5498">Dictionary</text><text fill="#000000" font-family="sans-serif" font-size="14" lengthAdjust="spacingAndGlyphs" textLength="70" x="273" y="556.8467">Generator</text><ellipse cx="311" cy="576.1484" fill="#FEFECE" filter="url(#fjqglqqpmeofi)" rx="12" ry="12" style="stroke: #A80036; stroke-width: 2.0;"/><polygon fill="#A80036" points="307,564.1484,313,559.1484,311,564.1484,313,569.1484,307,564.1484" style="stroke: #A80036; stroke-width: 1.0;"/><rect fill="#FEFECE" filter="url(#fjqglqqpmeofi)" height="46.5938" style="stroke: #A80036; stroke-width: 1.5;" width="88" x="434" y="50.8359"/><rect fill="#FEFECE" filter="url(#fjqglqqpmeofi)" height="46.5938" style="stroke: #A80036; stroke-width: 1.5;" width="88" x="430" y="54.8359"/><text fill="#000000" font-family="sans-serif" font-size="14" lengthAdjust="spacingAndGlyphs" textLength="74" x="437" y="74.8311">Generated</text><text fill="#000000" font-family="sans-serif" font-size="14" lengthAdjust="spacingAndGlyphs" textLength="68" x="440" y="91.1279">Dictionary</text><rect fill="#FEFECE" filter="url(#fjqglqqpmeofi)" height="46.5938" style="stroke: #A80036; stroke-width: 1.5;" width="88" x="434" y="527.5547"/><rect fill="#FEFECE" filter="url(#fjqglqqpmeofi)" height="46.5938" style="stroke: #A80036; stroke-width: 1.5;" width="88" x="430" y="531.5547"/><text fill="#000000" font-family="sans-serif" font-size="14" lengthAdjust="spacingAndGlyphs" textLength="74" x="437" y="551.5498">Generated</text><text fill="#000000" font-family="sans-serif" font-size="14" lengthAdjust="spacingAndGlyphs" textLength="68" x="440" y="567.8467">Dictionary</text><text fill="#000000" font-family="sans-serif" font-size="14" lengthAdjust="spacingAndGlyphs" textLength="31" x="558" y="86.8311">Web</text><text fill="#000000" font-family="sans-serif" font-size="14" lengthAdjust="spacingAndGlyphs" textLength="75" x="536" y="103.1279">Application</text><ellipse cx="576.5" cy="57.8359" fill="#FEFECE" filter="url(#fjqglqqpmeofi)" rx="12" ry="12" style="stroke: #A80036; stroke-width: 2.0;"/><polygon fill="#A80036" points="572.5,45.8359,578.5,40.8359,576.5,45.8359,578.5,50.8359,572.5,45.8359" style="stroke: #A80036; stroke-width: 1.0;"/><text fill="#000000" font-family="sans-serif" font-size="14" lengthAdjust="spacingAndGlyphs" textLength="31" x="558" y="540.5498">Web</text><text fill="#000000" font-family="sans-serif" font-size="14" lengthAdjust="spacingAndGlyphs" textLength="75" x="536" y="556.8467">Application</text><ellipse cx="576.5" cy="576.1484" fill="#FEFECE" filter="url(#fjqglqqpmeofi)" rx="12" ry="12" style="stroke: #A80036; stroke-width: 2.0;"/><polygon fill="#A80036" points="572.5,564.1484,578.5,559.1484,576.5,564.1484,578.5,569.1484,572.5,564.1484" style="stroke: #A80036; stroke-width: 1.0;"/><text fill="#000000" font-family="sans-serif" font-size="14" lengthAdjust="spacingAndGlyphs" textLength="66" x="698.5" y="103.1279">Database</text><path d="M716.5,54.1328 C716.5,44.1328 734.5,44.1328 734.5,44.1328 C734.5,44.1328 752.5,44.1328 752.5,54.1328 L752.5,80.1328 C752.5,90.1328 734.5,90.1328 734.5,90.1328 C734.5,90.1328 716.5,90.1328 716.5,80.1328 L716.5,54.1328 " fill="#FEFECE" filter="url(#fjqglqqpmeofi)" style="stroke: #000000; stroke-width: 1.5;"/><path d="M716.5,54.1328 C716.5,64.1328 734.5,64.1328 734.5,64.1328 C734.5,64.1328 752.5,64.1328 752.5,54.1328 " fill="none" style="stroke: #000000; stroke-width: 1.5;"/><text fill="#000000" font-family="sans-serif" font-size="14" lengthAdjust="spacingAndGlyphs" textLength="66" x="698.5" y="540.5498">Database</text><path d="M716.5,553.8516 C716.5,543.8516 734.5,543.8516 734.5,543.8516 C734.5,543.8516 752.5,543.8516 752.5,553.8516 L752.5,579.8516 C752.5,589.8516 734.5,589.8516 734.5,589.8516 C734.5,589.8516 716.5,589.8516 716.5,579.8516 L716.5,553.8516 " fill="#FEFECE" filter="url(#fjqglqqpmeofi)" style="stroke: #000000; stroke-width: 1.5;"/><path d="M716.5,553.8516 C716.5,563.8516 734.5,563.8516 734.5,563.8516 C734.5,563.8516 752.5,563.8516 752.5,553.8516 " fill="none" style="stroke: #000000; stroke-width: 1.5;"/><path d="M23,123.4297 L198,123.4297 L198,130.4297 L188,140.4297 L23,140.4297 L23,123.4297 " fill="#EEEEEE" style="stroke: #000000; stroke-width: 1.0;"/><rect fill="none" height="90.5313" style="stroke: #000000; stroke-width: 2.0;" width="757.5" x="23" y="123.4297"/><text fill="#000000" font-family="sans-serif" font-size="13" font-weight="bold" lengthAdjust="spacingAndGlyphs" textLength="130" x="38" y="136.4966">dictionary editing</text><polygon fill="#A80036" points="564.5,172.8281,574.5,176.8281,564.5,180.8281,568.5,176.8281" style="stroke: #A80036; stroke-width: 1.0;"/><line style="stroke: #A80036; stroke-width: 1.0;" x1="56" x2="570.5" y1="176.8281" y2="176.8281"/><text fill="#000000" font-family="sans-serif" font-size="13" lengthAdjust="spacingAndGlyphs" textLength="122" x="63" y="156.6294">edits the dictionary</text><text fill="#000000" font-family="sans-serif" font-size="13" lengthAdjust="spacingAndGlyphs" textLength="44" x="63" y="171.7622">entries</text><polygon fill="#A80036" points="722.5,201.9609,732.5,205.9609,722.5,209.9609,726.5,205.9609" style="stroke: #A80036; stroke-width: 1.0;"/><line style="stroke: #A80036; stroke-width: 1.0;" x1="576.5" x2="728.5" y1="205.9609" y2="205.9609"/><text fill="#000000" font-family="sans-serif" font-size="13" lengthAdjust="spacingAndGlyphs" textLength="134" x="583.5" y="200.895">update the database</text><path d="M13,227.9609 L216,227.9609 L216,234.9609 L206,244.9609 L13,244.9609 L13,227.9609 " fill="#EEEEEE" style="stroke: #000000; stroke-width: 1.0;"/><rect fill="none" height="283.5938" style="stroke: #000000; stroke-width: 2.0;" width="767.5" x="13" y="227.9609"/><text fill="#000000" font-family="sans-serif" font-size="13" font-weight="bold" lengthAdjust="spacingAndGlyphs" textLength="158" x="28" y="241.0278">dictionary generation</text><polygon fill="#A80036" points="564.5,292.4922,574.5,296.4922,564.5,300.4922,568.5,296.4922" style="stroke: #A80036; stroke-width: 1.0;"/><line style="stroke: #A80036; stroke-width: 1.0;" x1="56" x2="570.5" y1="296.4922" y2="296.4922"/><text fill="#000000" font-family="sans-serif" font-size="13" lengthAdjust="spacingAndGlyphs" textLength="109" x="63" y="261.1606">choose subset of</text><text fill="#000000" font-family="sans-serif" font-size="13" lengthAdjust="spacingAndGlyphs" textLength="130" x="63" y="276.2935">target languages for</text><text fill="#000000" font-family="sans-serif" font-size="13" lengthAdjust="spacingAndGlyphs" textLength="41" x="63" y="291.4263">export</text><polygon fill="#A80036" points="587.5,321.625,577.5,325.625,587.5,329.625,583.5,325.625" style="stroke: #A80036; stroke-width: 1.0;"/><line style="stroke: #A80036; stroke-width: 1.0;" x1="581.5" x2="733.5" y1="325.625" y2="325.625"/><text fill="#000000" font-family="sans-serif" font-size="13" lengthAdjust="spacingAndGlyphs" textLength="78" x="593.5" y="320.5591">extract data</text><polygon fill="#A80036" points="67,350.7578,57,354.7578,67,358.7578,63,354.7578" style="stroke: #A80036; stroke-width: 1.0;"/><line style="stroke: #A80036; stroke-width: 1.0;" x1="61" x2="575.5" y1="354.7578" y2="354.7578"/><text fill="#000000" font-family="sans-serif" font-size="13" lengthAdjust="spacingAndGlyphs" textLength="113" x="73" y="349.6919">download CSV file</text><path d="M23,369.7578 L354,369.7578 L354,376.7578 L344,386.7578 L23,386.7578 L23,369.7578 " fill="#EEEEEE" style="stroke: #000000; stroke-width: 1.0;"/><rect fill="none" height="134.7969" style="stroke: #000000; stroke-width: 2.0;" width="513" x="23" y="369.7578"/><text fill="#000000" font-family="sans-serif" font-size="13" font-weight="bold" lengthAdjust="spacingAndGlyphs" textLength="286" x="38" y="382.8247">Existing Dictionary Generation Process</text><polygon fill="#A80036" points="299,404.0234,309,408.0234,299,412.0234,303,408.0234" style="stroke: #A80036; stroke-width: 1.0;"/><line style="stroke: #A80036; stroke-width: 1.0;" x1="56" x2="305" y1="408.0234" y2="408.0234"/><text fill="#000000" font-family="sans-serif" font-size="13" lengthAdjust="spacingAndGlyphs" textLength="41" x="63" y="402.9575">invoke</text><polygon fill="#A80036" points="149,463.4219,139,467.4219,149,471.4219,145,467.4219" style="stroke: #A80036; stroke-width: 1.0;"/><line style="stroke: #A80036; stroke-width: 1.0;" x1="143" x2="310" y1="467.4219" y2="467.4219"/><text fill="#000000" font-family="sans-serif" font-size="13" lengthAdjust="spacingAndGlyphs" textLength="149" x="155" y="432.0903">import and process the</text><text fill="#000000" font-family="sans-serif" font-size="13" lengthAdjust="spacingAndGlyphs" textLength="131" x="155" y="447.2231">CSV to generate the</text><text fill="#000000" font-family="sans-serif" font-size="13" lengthAdjust="spacingAndGlyphs" textLength="96" x="155" y="462.356">inflections, etc.</text><polygon fill="#A80036" points="466,492.5547,476,496.5547,466,500.5547,470,496.5547" style="stroke: #A80036; stroke-width: 1.0;"/><line style="stroke: #A80036; stroke-width: 1.0;" x1="311" x2="472" y1="496.5547" y2="496.5547"/><text fill="#000000" font-family="sans-serif" font-size="13" lengthAdjust="spacingAndGlyphs" textLength="143" x="318" y="491.4888">produce the dictionary</text><!--MD5=[d2e24db39da890004e57fbb6936ba4d2]
@startuml
skinparam maxMessageSize 150
skinparam wrapWidth 150

box Local entities
actor "Editor" as editor
collections "CSV Export" as csv
control "Dictionary\nGenerator" as dict_gen
collections "Generated\nDictionary" as gen_dict
end box
box Cloud instance #SkyBlue
control "Web\nApplication" as webapp
database "Database" as web_db 
end box


group dictionary editing
editor -> webapp: edits the dictionary entries
webapp -> web_db: update the database
end group

group dictionary generation
editor -> webapp: choose subset of target languages for export
webapp <- web_db: extract data
webapp -> editor: download CSV file
group Existing Dictionary Generation Process
editor -> dict_gen: invoke
csv <- dict_gen: import and process the CSV to generate the inflections, etc.
dict_gen -> gen_dict: produce the dictionary
end


end group

@enduml

PlantUML version 1.2020.02(Sun Mar 01 11:22:07 CET 2020)
(GPL source distribution)
Java Runtime: OpenJDK Runtime Environment
JVM: OpenJDK 64-Bit Server VM
Java Version: 17.0.4+8-Debian-1deb11u1
Operating System: Linux
Default Encoding: UTF-8
Language: en
Country: GB
--></g></svg>