<?xml version="1.0" encoding="UTF-8" standalone="no"?><svg xmlns="http://www.w3.org/2000/svg" xmlns:xlink="http://www.w3.org/1999/xlink" contentScriptType="application/ecmascript" contentStyleType="text/css" height="500px" preserveAspectRatio="none" style="width:872px;height:500px;" version="1.1" viewBox="0 0 872 500" width="872px" zoomAndPan="magnify"><defs><filter height="300%" id="f143bq0hda8b4p" width="300%" x="-1" y="-1"><feGaussianBlur result="blurOut" stdDeviation="2.0"/><feColorMatrix in="blurOut" result="blurOut2" type="matrix" values="0 0 0 0 0 0 0 0 0 0 0 0 0 0 0 0 0 0 .4 0"/><feOffset dx="4.0" dy="4.0" in="blurOut2" result="blurOut3"/><feBlend in="SourceGraphic" in2="blurOut3" mode="normal"/></filter></defs><g><!--MD5=[ec9e782bad779c53622ae0851576a95f]
class dict--><rect fill="#FEFECE" filter="url(#f143bq0hda8b4p)" height="65.5781" id="dict" style="stroke: #A80036; stroke-width: 1.5;" width="199" x="108" y="8"/><text fill="#000000" font-family="sans-serif" font-size="12" lengthAdjust="spacingAndGlyphs" textLength="62" x="176.5" y="24.1387">Dictionary</text><line style="stroke: #A80036; stroke-width: 1.5;" x1="109" x2="306" y1="31.9688" y2="31.9688"/><text fill="#000000" font-family="sans-serif" font-size="11" lengthAdjust="spacingAndGlyphs" textLength="187" x="114" y="46.1792">«col» *dictionary_id (primary key)</text><line style="stroke: #A80036; stroke-width: 1.0;" x1="109" x2="306" y1="52.7734" y2="52.7734"/><text fill="#000000" font-family="sans-serif" font-size="11" lengthAdjust="spacingAndGlyphs" textLength="124" x="114" y="66.9839">«col» Dictionary name</text><!--MD5=[17fdf1625663ae1a707ad7064a5e93f5]
class entry--><rect fill="#FEFECE" filter="url(#f143bq0hda8b4p)" height="91.1875" id="entry" style="stroke: #A80036; stroke-width: 1.5;" width="403" x="6" y="134"/><text fill="#000000" font-family="sans-serif" font-size="12" lengthAdjust="spacingAndGlyphs" textLength="175" x="120" y="150.1387">Dictionary Entry (Headword)</text><line style="stroke: #A80036; stroke-width: 1.5;" x1="7" x2="408" y1="157.9688" y2="157.9688"/><text fill="#000000" font-family="sans-serif" font-size="11" lengthAdjust="spacingAndGlyphs" textLength="161" x="12" y="172.1792">«col» *entry_id (primary key)</text><line style="stroke: #A80036; stroke-width: 1.0;" x1="7" x2="408" y1="178.7734" y2="178.7734"/><text fill="#000000" font-family="sans-serif" font-size="11" lengthAdjust="spacingAndGlyphs" textLength="391" x="12" y="192.9839">«col» &lt;superset of all columns of DPD and DPS except for meanings&gt;</text><text fill="#000000" font-family="sans-serif" font-size="11" lengthAdjust="spacingAndGlyphs" textLength="119" x="12" y="205.7886">«col» variant: Integer</text><text fill="#000000" font-family="sans-serif" font-size="11" lengthAdjust="spacingAndGlyphs" textLength="0" x="15" y="218.5933"/><path d="M444.5,144 L444.5,175.5 L409.14,179.5 L444.5,183.5 L444.5,214.5313 A0,0 0 0 0 444.5,214.5313 L860.5,214.5313 A0,0 0 0 0 860.5,214.5313 L860.5,154 L850.5,144 L444.5,144 A0,0 0 0 0 444.5,144 " fill="#FBFB77" filter="url(#f143bq0hda8b4p)" style="stroke: #A80036; stroke-width: 1.0;"/><path d="M850.5,144 L850.5,154 L860.5,154 L850.5,144 " fill="#FBFB77" style="stroke: #A80036; stroke-width: 1.0;"/><text fill="#000000" font-family="sans-serif" font-size="13" lengthAdjust="spacingAndGlyphs" textLength="345" x="450.5" y="161.0669">"variant" differentiates between various etymologically</text><text fill="#000000" font-family="sans-serif" font-size="13" lengthAdjust="spacingAndGlyphs" textLength="345" x="450.5" y="176.1997">different homonyms as e.g. PED does with superscript</text><text fill="#000000" font-family="sans-serif" font-size="13" lengthAdjust="spacingAndGlyphs" textLength="395" x="450.5" y="191.3325">numbers ("dhamma¹" etc). "variant" is automatically assigned</text><text fill="#000000" font-family="sans-serif" font-size="13" lengthAdjust="spacingAndGlyphs" textLength="117" x="450.5" y="206.4653">by the application.</text><!--MD5=[6f2af09b6225908ff7d4ba07e7fc19d3]
class meaning--><rect fill="#FEFECE" filter="url(#f143bq0hda8b4p)" height="65.5781" id="meaning" style="stroke: #A80036; stroke-width: 1.5;" width="193" x="111" y="285"/><text fill="#000000" font-family="sans-serif" font-size="12" lengthAdjust="spacingAndGlyphs" textLength="53" x="181" y="301.1387">Meaning</text><line style="stroke: #A80036; stroke-width: 1.5;" x1="112" x2="303" y1="308.9688" y2="308.9688"/><text fill="#000000" font-family="sans-serif" font-size="11" lengthAdjust="spacingAndGlyphs" textLength="181" x="117" y="323.1792">«col» *meaning_id (primary key)</text><line style="stroke: #A80036; stroke-width: 1.0;" x1="112" x2="303" y1="329.7734" y2="329.7734"/><text fill="#000000" font-family="sans-serif" font-size="11" lengthAdjust="spacingAndGlyphs" textLength="140" x="117" y="343.9839">«col» meaning_text: Text</text><path d="M339.5,298 L339.5,314 L304.05,318 L339.5,322 L339.5,338.2656 A0,0 0 0 0 339.5,338.2656 L667.5,338.2656 A0,0 0 0 0 667.5,338.2656 L667.5,308 L657.5,298 L339.5,298 A0,0 0 0 0 339.5,298 " fill="#FBFB77" filter="url(#f143bq0hda8b4p)" style="stroke: #A80036; stroke-width: 1.0;"/><path d="M657.5,298 L657.5,308 L667.5,308 L657.5,298 " fill="#FBFB77" style="stroke: #A80036; stroke-width: 1.0;"/><text fill="#000000" font-family="sans-serif" font-size="13" lengthAdjust="spacingAndGlyphs" textLength="307" x="345.5" y="315.0669">meaning is given in the primary target language</text><text fill="#000000" font-family="sans-serif" font-size="13" lengthAdjust="spacingAndGlyphs" textLength="103" x="345.5" y="330.1997">of the dictionary</text><!--MD5=[f33ebb19abb7580f20847ed90878c805]
class meaning_translation--><rect fill="#FEFECE" filter="url(#f143bq0hda8b4p)" height="78.3828" id="meaning_translation" style="stroke: #A80036; stroke-width: 1.5;" width="193" x="111" y="411"/><text fill="#000000" font-family="sans-serif" font-size="12" lengthAdjust="spacingAndGlyphs" textLength="129" x="143" y="427.1387">Meaning_Translation</text><line style="stroke: #A80036; stroke-width: 1.5;" x1="112" x2="303" y1="434.9688" y2="434.9688"/><text fill="#000000" font-family="sans-serif" font-size="11" lengthAdjust="spacingAndGlyphs" textLength="181" x="117" y="449.1792">«col» *meaning_id (primary key)</text><line style="stroke: #A80036; stroke-width: 1.0;" x1="112" x2="303" y1="455.7734" y2="455.7734"/><text fill="#000000" font-family="sans-serif" font-size="11" lengthAdjust="spacingAndGlyphs" textLength="140" x="117" y="469.9839">«col» meaning_text: Text</text><text fill="#000000" font-family="sans-serif" font-size="11" lengthAdjust="spacingAndGlyphs" textLength="172" x="117" y="482.7886">«col» target_language: Integer</text><path d="M339.5,430 L339.5,446 L304.01,450 L339.5,454 L339.5,470.2656 A0,0 0 0 0 339.5,470.2656 L665.5,470.2656 A0,0 0 0 0 665.5,470.2656 L665.5,440 L655.5,430 L339.5,430 A0,0 0 0 0 339.5,430 " fill="#FBFB77" filter="url(#f143bq0hda8b4p)" style="stroke: #A80036; stroke-width: 1.0;"/><path d="M655.5,430 L655.5,440 L665.5,440 L655.5,430 " fill="#FBFB77" style="stroke: #A80036; stroke-width: 1.0;"/><text fill="#000000" font-family="sans-serif" font-size="13" lengthAdjust="spacingAndGlyphs" textLength="305" x="345.5" y="447.0669">application logic ensures that only one meaning</text><text fill="#000000" font-family="sans-serif" font-size="13" lengthAdjust="spacingAndGlyphs" textLength="272" x="345.5" y="462.1997">translation per target_language is possible</text><!--MD5=[decbbf69fa94681d9b514f1c049fb907]
link dict to entry--><path d="M207.5,82.22 C207.5,95.75 207.5,111.07 207.5,125.45 " fill="none" id="dict-entry" style="stroke: #A80036; stroke-width: 1.0; stroke-dasharray: 7.0,7.0;"/><line style="stroke: #A80036; stroke-width: 1.0;" x1="207.5" x2="213.5" y1="125.78" y2="133.78"/><line style="stroke: #A80036; stroke-width: 1.0;" x1="207.5" x2="201.5" y1="125.78" y2="133.78"/><line style="stroke: #A80036; stroke-width: 1.0;" x1="207.5" x2="207.5" y1="125.78" y2="133.78"/><ellipse cx="207.5" cy="119.78" fill="none" rx="4" ry="4" style="stroke: #A80036; stroke-width: 1.0;"/><line style="stroke: #A80036; stroke-width: 1.0;" x1="203.5" x2="211.5" y1="78" y2="78"/><line style="stroke: #A80036; stroke-width: 1.0;" x1="203.5" x2="211.5" y1="81" y2="81"/><line style="stroke: #A80036; stroke-width: 1.0;" x1="207.5" x2="207.5" y1="82" y2="74"/><!--MD5=[bf2a78e9d027f4913355937b5b2a83bd]
link entry to meaning--><path d="M207.5,233.55 C207.5,247.86 207.5,263.11 207.5,276.6 " fill="none" id="entry-meaning" style="stroke: #A80036; stroke-width: 1.0; stroke-dasharray: 7.0,7.0;"/><line style="stroke: #A80036; stroke-width: 1.0;" x1="207.5" x2="213.5" y1="276.75" y2="284.75"/><line style="stroke: #A80036; stroke-width: 1.0;" x1="207.5" x2="201.5" y1="276.75" y2="284.75"/><line style="stroke: #A80036; stroke-width: 1.0;" x1="207.5" x2="207.5" y1="276.75" y2="284.75"/><ellipse cx="207.5" cy="270.75" fill="none" rx="4" ry="4" style="stroke: #A80036; stroke-width: 1.0;"/><line style="stroke: #A80036; stroke-width: 1.0;" x1="203.5" x2="211.5" y1="229.2" y2="229.2"/><line style="stroke: #A80036; stroke-width: 1.0;" x1="203.5" x2="211.5" y1="232.2" y2="232.2"/><line style="stroke: #A80036; stroke-width: 1.0;" x1="207.5" x2="207.5" y1="233.2" y2="225.2"/><!--MD5=[a7a6aa28edb78a69b6517876d1b0f652]
link meaning to meaning_translation--><path d="M207.5,359.45 C207.5,373.13 207.5,388.52 207.5,402.63 " fill="none" id="meaning-meaning_translation" style="stroke: #A80036; stroke-width: 1.0; stroke-dasharray: 7.0,7.0;"/><line style="stroke: #A80036; stroke-width: 1.0;" x1="207.5" x2="213.5" y1="402.76" y2="410.76"/><line style="stroke: #A80036; stroke-width: 1.0;" x1="207.5" x2="201.5" y1="402.76" y2="410.76"/><line style="stroke: #A80036; stroke-width: 1.0;" x1="207.5" x2="207.5" y1="402.76" y2="410.76"/><ellipse cx="207.5" cy="396.76" fill="none" rx="4" ry="4" style="stroke: #A80036; stroke-width: 1.0;"/><line style="stroke: #A80036; stroke-width: 1.0;" x1="203.5" x2="211.5" y1="355.13" y2="355.13"/><line style="stroke: #A80036; stroke-width: 1.0;" x1="203.5" x2="211.5" y1="358.13" y2="358.13"/><line style="stroke: #A80036; stroke-width: 1.0;" x1="207.5" x2="207.5" y1="359.13" y2="351.13"/><!--MD5=[108f4264086b992c15df3225a0e5228d]
@startuml
skinparam wrapWidth 650

hide circle 
entity "Dictionary" as dict {
<<col>> *dictionary_id (primary key)
- -
<<col>> Dictionary name 
}

entity "Dictionary Entry (Headword)" as entry {
<<col>> *entry_id (primary key)
- -
<<col>> <superset of all columns of DPD and DPS except for meanings>
<<col>> variant: Integer 

}
note right of entry: "variant" differentiates between various etymologically\ndifferent homonyms as e.g. PED does with superscript\nnumbers ("dhamma¹" etc). "variant" is automatically assigned\nby the application.

entity "Meaning" as meaning {
<<col>> *meaning_id (primary key)
- -
<<col>> meaning_text: Text
}
note right of meaning: meaning is given in the primary target language\nof the dictionary


entity "Meaning_Translation" as meaning_translation {
<<col>> *meaning_id (primary key)
- -
<<col>> meaning_text: Text
<<col>> target_language: Integer 
}
note right of meaning_translation: application logic ensures that only one meaning\ntranslation per target_language is possible

 dict ||..o{ entry
 entry ||..o{ meaning
 meaning ||..o{ meaning_translation 
@enduml

PlantUML version 1.2020.02(Sun Mar 01 11:22:07 CET 2020)
(GPL source distribution)
Java Runtime: OpenJDK Runtime Environment
JVM: OpenJDK 64-Bit Server VM
Java Version: 17.0.4+8-Debian-1deb11u1
Operating System: Linux
Default Encoding: UTF-8
Language: en
Country: GB
--></g></svg>